<?xml version="1.0" encoding="UTF-8" standalone="no"?>
<svg
   xmlns:dc="http://purl.org/dc/elements/1.1/"
   xmlns:cc="http://creativecommons.org/ns#"
   xmlns:rdf="http://www.w3.org/1999/02/22-rdf-syntax-ns#"
   xmlns:svg="http://www.w3.org/2000/svg"
   xmlns="http://www.w3.org/2000/svg"
   xmlns:sodipodi="http://sodipodi.sourceforge.net/DTD/sodipodi-0.dtd"
   xmlns:inkscape="http://www.inkscape.org/namespaces/inkscape"
   version="1.0"
   width="242.32684pt"
   height="289.22449pt"
   viewBox="0 0 242.32684 289.22449"
   preserveAspectRatio="xMidYMid meet"
   id="svg16"
   sodipodi:docname="monologo.svg"
   inkscape:version="0.92.4 (5da689c313, 2019-01-14)">
  <metadata
     id="metadata22">
    <rdf:RDF>
      <cc:Work
         rdf:about="">
        <dc:format>image/svg+xml</dc:format>
        <dc:type
           rdf:resource="http://purl.org/dc/dcmitype/StillImage" />
        <dc:title />
      </cc:Work>
    </rdf:RDF>
  </metadata>
  <defs
     id="defs20" />
  <sodipodi:namedview
     pagecolor="#ffffff"
     bordercolor="#666666"
     borderopacity="1"
     objecttolerance="10"
     gridtolerance="10"
     guidetolerance="10"
     inkscape:pageopacity="0"
     inkscape:pageshadow="2"
     inkscape:window-width="1920"
     inkscape:window-height="1129"
     id="namedview18"
     showgrid="false"
     inkscape:zoom="1.153529"
     inkscape:cx="149.34215"
     inkscape:cy="143.25088"
     inkscape:window-x="-8"
     inkscape:window-y="-8"
     inkscape:window-maximized="1"
     inkscape:current-layer="svg16" />
  <path
     style="fill:#000000;stroke:none;stroke-width:0.1"
     inkscape:connector-curvature="0"
     id="path2"
     d="m 22.068375,104.69142 c -13.1999998,6.8 -13.1999998,24.8 0,31.6 11.7,6 25.4,-2.5 25.4,-15.8 0,-13.3 -13.7,-21.799999 -25.4,-15.8 z" />
  <path
     style="fill:#000000;stroke:none;stroke-width:0.1"
     inkscape:connector-curvature="0"
     id="path4"
     d="m 229.06838,116.39142 c 8.9,4.1 10.5,8.5 10.5,28.3 0,12.7 -0.4,16 -1.9,19.4 -2.2,4.7 -5.9,8 -11,9.5 -2.4,0.7 -24.60001,0.9 -67.10001,0.7 l -63.499995,-0.3 -3.7,-2.3 c -2,-1.3 -4.7,-4 -6,-6 -2.2,-3.5 -2.3,-4.7 -2.3,-21.2 0,-16.5 0.1,-17.7 2.3,-21.2 1.3,-2 4,-4.7 6,-6 l 3.7,-2.3 64.499995,-0.2 c 61,-0.3 64.70001,-0.2 68.50001,1.6 z m -121.5,28.1 v 6 h 18 17.99999 v -6 -6 h -17.99999 -18 z" />
  <path
     style="fill:#000000;stroke:none;stroke-width:0.1"
     inkscape:connector-curvature="0"
     id="path6"
     d="m 18.068375,151.35698 c -7.6,2.4 -12.6999998,7 -15.8999998,14.1 -3.7,8.2 -2.09999999,16.4 3.9,19.5 4.2999998,2.2 42.6999998,2.2 47.4999998,-0.1 10.9,-5.2 6.7,-24.5 -6.9,-31.6 -3.3,-1.8 -6.1,-2.3 -15.1,-2.5 -6,-0.1 -12.1,0.1 -13.5,0.6 z" />
  <path
     style="fill:#000000;stroke:none;stroke-width:0.1"
     inkscape:connector-curvature="0"
     id="path8"
     d="m 22.068375,207.42447 c -13.1999998,6.8 -13.1999998,24.8 0,31.6 11.8,6.1 25.5,-2.4 25.5,-15.8 0,-13.4 -13.7,-21.9 -25.5,-15.8 z" />
  <path
     style="fill:#000000;stroke:none;stroke-width:0.1"
     inkscape:connector-curvature="0"
     id="path10"
     d="m 94.568375,219.12447 c -8.9,4.1 -10.5,8.5 -10.5,28.3 0,12.7 0.4,16 1.9,19.4 2.2,4.7 5.9,8 11,9.5 2.4,0.7 24.700005,0.9 67.200005,0.7 l 63.5,-0.3 4.1,-2.7 c 6.9,-4.5 7.8,-7.8 7.8,-26.8 0,-19 -0.9,-22.3 -7.8,-26.8 l -4.1,-2.7 -64.5,-0.2 c -61.1,-0.3 -64.800005,-0.2 -68.600005,1.6 z m 121.500005,28.1 v 6 h -42 -42 v -6 -6 h 42 42 z" />
  <path
     style="display:inline;fill:#000000;stroke:none;stroke-width:0.1"
     inkscape:connector-curvature="0"
     id="path12"
     d="m 18.068375,254.12447 c -13.3999998,4.3 -21.6999998,19 -16.4999998,29.1 2.8,5.5 5.3,6 27.9999998,6 17.3,0 21.3,-0.3 24.2,-1.7 3.7,-1.7 6.3,-6.2 6.3,-10.7 0,-4.4 -3.9,-13.1 -7.2,-16.3 -6,-5.6 -9.3,-6.7 -21.3,-7 -6,-0.1 -12.1,0.1 -13.5,0.6 z" />
  <path
     d="m 22.06875,1.9583717 c -13.2,6.8 -13.2,24.8000003 0,31.6000003 11.7,6 25.4,-2.5 25.4,-15.8 0,-13.3000003 -13.7,-21.8000003 -25.4,-15.8000003 z"
     id="path835"
     inkscape:connector-curvature="0"
     style="fill:#000000;stroke:none;stroke-width:0.1" />
  <path
     d="m 94.568245,13.658372 c -8.899995,4.1 -10.499995,8.5 -10.499995,28.3 0,12.7 0.4,16 1.9,19.4 2.199995,4.7 5.899995,8 10.999995,9.5 2.400005,0.7 24.600005,0.9 67.100005,0.7 l 63.5,-0.3 3.7,-2.3 c 2,-1.3 4.7,-4 6,-6 2.2,-3.5 2.3,-4.7 2.3,-21.2 0,-16.5 -0.1,-17.7 -2.3,-21.2 -1.3,-2 -4,-4.7 -6,-6 l -3.7,-2.3 -64.5,-0.2 c -61,-0.3 -64.7,-0.2 -68.500005,1.6 z m 121.500005,28.1 v 6 h -18 -18 v -6 -6 h 18 18 z"
     id="path837"
     inkscape:connector-curvature="0"
     style="fill:#000000;stroke:none;stroke-width:0.1" />
  <path
     d="m 18.0686,48.658372 c -7.6,2.4 -12.6999995,7 -15.8999995,14.1 -3.7,8.2 -2.10000003,16.4 3.8999998,19.5 4.2999997,2.2 42.6999997,2.2 47.4999997,-0.1 10.9,-5.2 6.7,-24.5 -6.9,-31.6 -3.3,-1.8 -6.1,-2.3 -15.1,-2.5 -6,-0.1 -12.1,0.1 -13.5,0.6 z"
     id="path839"
     inkscape:connector-curvature="0"
     style="fill:#000000;stroke:none;stroke-width:0.1" />
</svg>
