<?xml version="1.0" encoding="utf-8"?>
<!-- Generator: Adobe Illustrator 26.5.0, SVG Export Plug-In . SVG Version: 6.00 Build 0)  -->
<svg version="1.1" width="24px" height="24px"
         xmlns="http://www.w3.org/2000/svg" xmlns:xlink="http://www.w3.org/1999/xlink" x="0px" y="0px" viewBox="0 0 24 24"
         style="enable-background:new 0 0 24 24;" xml:space="preserve">
<g id="path1316">
        <path d="M1.9,22.9c-0.6,0-1.1-0.2-1.5-0.7c-0.3-0.4-0.5-1-0.4-1.5L3.2,4.5l1.7,0.3L1.7,21.1c0,0,0.1,0.1,0.2,0.1h20.3
                c0,0,0-0.1,0-0.1L17.9,4.8l1.6-0.4l4.4,16.2c0.2,0.6,0.1,1.2-0.3,1.6c-0.3,0.4-0.8,0.7-1.3,0.7L1.9,22.9C2,22.9,1.9,22.9,1.9,22.9
                L1.9,22.9z"/>
</g>
<g id="path2518">
        <path d="M21.4,19.8H2.5c-1,0-1.8-0.8-1.8-1.7h22.4C23.2,19.1,22.4,19.8,21.4,19.8L21.4,19.8z"/>
</g>
<g id="rect2225">
        <path d="M20.8,17H3c-0.9,0-1.7-0.8-1.7-1.7h21.2C22.5,16.3,21.8,17,20.8,17z"/>
</g>
<g id="rect2522">
        <path d="M18.4,5.8H4.3C3.3,5.8,2.6,5,2.6,4.1l0-0.1l0.2-1.2c0-0.9,0.8-1.6,1.7-1.6h13.7c0.9,0,1.7,0.7,1.7,1.6l0.2,1.3
                C20.1,5,19.3,5.8,18.4,5.8z M4.3,4.1l14.1,0l-0.2-1.3l-13.7,0l0,0.2L4.3,4.1z"/>
</g>
<path id="text2541" d="M9.6,10.4c0.6,0.1,1,0.2,1.3,0.5c0.3,0.3,0.4,0.6,0.3,1c-0.1,0.6-0.4,1.1-1,1.5C9.6,13.8,8.9,14,7.9,14
        c-0.7,0-1.3-0.1-1.8-0.3l0.1-1.2C6.8,12.8,7.4,13,8,13c0.5,0,0.9-0.1,1.2-0.3c0.3-0.2,0.5-0.4,0.5-0.7c0-0.3-0.1-0.6-0.4-0.7
        c-0.3-0.2-0.8-0.2-1.4-0.2H7.3l0.1-1h0.8c0.5,0,0.9-0.1,1.2-0.2c0.3-0.2,0.5-0.4,0.5-0.7c0-0.3-0.1-0.5-0.3-0.7
        c-0.2-0.2-0.5-0.2-1-0.2C8.1,8.2,7.6,8.4,7,8.7l0.1-1.1c0.6-0.3,1.3-0.4,2-0.4c0.7,0,1.3,0.1,1.7,0.4c0.4,0.3,0.6,0.7,0.5,1.1
        c-0.1,0.4-0.2,0.8-0.5,1.1C10.5,10.1,10.1,10.3,9.6,10.4"/>
<path id="text2545" d="M16.6,14h-1.5l-0.6-5.4L12.7,9l-0.1-1l3.2-0.8L16.6,14"/>
</svg>

